<svg width="163" height="36" viewBox="0 0 163 36" fill="none" xmlns="http://www.w3.org/2000/svg"><path d="M51.0704 10.8099C55.0069 10.8099 58.2087 13.9293 58.2087 17.7643C58.2087 21.5993 55.0069 24.7187 51.0704 24.7187H46.1756V10.8099H51.0704ZM51.0704 6.82867H44.335C43.108 6.82867 42.089 7.81886 42.089 9.01682V26.5144C42.089 27.7098 43.1054 28.7025 44.335 28.7025H51.0704C57.2792 28.7025 62.2952 23.8157 62.2952 17.7669C62.2952 11.718 57.2792 6.82867 51.0704 6.82867Z" fill="black"/><path d="M82.0045 26.7145C82.0045 27.8021 81.0803 28.7025 79.9638 28.7025C78.8474 28.7025 77.9232 27.8021 77.9232 26.7145V20.7503C77.9232 18.5442 76.1064 16.7742 73.8419 16.7742C71.5775 16.7742 69.7607 18.5442 69.7607 20.7503V26.7145C69.7607 27.8021 68.8365 28.7025 67.72 28.7025C66.6036 28.7025 65.6794 27.8021 65.6794 26.7145V8.81934C65.6794 7.73167 66.6036 6.83127 67.72 6.83127C68.8365 6.83127 69.7607 7.73167 69.7607 8.81934V13.8831C70.9403 13.2008 72.3437 12.7955 73.8419 12.7955C78.3366 12.7955 82.0045 16.3688 82.0045 20.7477V26.7145Z" fill="black"/><path d="M90.0414 26.7144C90.0414 27.8021 89.1172 28.7025 88.0008 28.7025C86.8844 28.7025 85.9602 27.8021 85.9602 26.7144V14.7861C85.9602 13.6984 86.8844 12.798 88.0008 12.798C89.1172 12.798 90.0414 13.6984 90.0414 14.7861V26.7144Z" fill="black"/><path d="M116.953 26.7145C116.953 27.8021 116.029 28.7025 114.913 28.7025C114.37 28.7025 113.86 28.4845 113.478 28.1125L105.729 20.563L97.9821 28.1125C97.6003 28.4845 97.0895 28.7025 96.5471 28.7025C95.4306 28.7025 94.5064 27.8021 94.5064 26.7145V8.81934C94.5064 7.73167 95.4306 6.83127 96.5471 6.83127C97.6635 6.83127 98.5877 7.73167 98.5877 8.81934V21.9303L104.296 16.3688C104.678 15.9661 105.22 15.7788 105.731 15.7788C106.242 15.7788 106.784 15.9661 107.166 16.3688L112.875 21.9303V8.81934C112.875 7.73167 113.799 6.83127 114.915 6.83127C116.032 6.83127 116.956 7.73167 116.956 8.81934V26.7145H116.953Z" fill="black"/><path d="M125.499 26.7144C125.499 27.8021 124.575 28.7025 123.459 28.7025C122.342 28.7025 121.418 27.8021 121.418 26.7144V14.7861C121.418 13.6984 122.342 12.798 123.459 12.798C124.575 12.798 125.499 13.6984 125.499 14.7861V26.7144Z" fill="black"/><path d="M138.639 24.7263C139.213 24.7263 139.658 24.2928 139.658 23.731C139.658 23.1692 139.213 22.7357 138.639 22.7357H134.558C131.751 22.7357 129.455 20.4988 129.455 17.7643C129.455 15.0297 131.751 12.7928 134.558 12.7928H140.68C141.796 12.7928 142.721 13.6932 142.721 14.7809C142.721 15.8685 141.796 16.7689 140.68 16.7689H134.558C133.984 16.7689 133.537 17.2025 133.537 17.7643C133.537 18.3261 133.982 18.7596 134.558 18.7596H138.639C141.446 18.7596 143.74 20.9965 143.74 23.731C143.74 26.4656 141.444 28.7025 138.639 28.7025H131.496C130.379 28.7025 129.455 27.8021 129.455 26.7144C129.455 25.6267 130.379 24.7263 131.496 24.7263H138.639Z" fill="black"/><path d="M154.838 28.7025C150.34 28.7025 146.675 25.1291 146.675 20.7502C146.675 16.3714 150.34 12.798 154.838 12.798C159.332 12.798 163 16.3714 163 20.7502C163 21.8379 162.076 22.7383 160.96 22.7383H151.296C151.999 23.9491 153.305 24.7264 154.835 24.7264H156.876C157.992 24.7264 158.916 25.6268 158.916 26.7144C158.916 27.8021 157.992 28.7025 156.876 28.7025H154.838ZM151.296 18.7596H158.374C157.673 17.5796 156.333 16.7716 154.835 16.7716C153.305 16.7716 151.999 17.5796 151.296 18.7596Z" fill="black"/><path d="M87.9997 11.3051C89.2677 11.3051 90.2957 10.3036 90.2957 9.06816C90.2957 7.83276 89.2677 6.83127 87.9997 6.83127C86.7316 6.83127 85.7036 7.83276 85.7036 9.06816C85.7036 10.3036 86.7316 11.3051 87.9997 11.3051Z" fill="url(#paint0_linear_1612_6248)"/><path d="M123.46 11.3051C124.728 11.3051 125.756 10.3036 125.756 9.06816C125.756 7.83276 124.728 6.83127 123.46 6.83127C122.192 6.83127 121.164 7.83276 121.164 9.06816C121.164 10.3036 122.192 11.3051 123.46 11.3051Z" fill="url(#paint1_linear_1612_6248)"/><path d="M25.4302 0H2.3408C1.04796 0 0 1.02097 0 2.2805V27.1326C0 28.0561 0.571377 28.8872 1.44556 29.2386C2.31711 29.5901 3.32557 29.3951 3.99701 28.7436L15.2692 17.7617C16.1829 16.8716 16.1829 15.4274 15.2692 14.5372C14.3555 13.6471 12.8731 13.6471 11.9594 14.5372L4.68161 21.6276V4.561H25.4329C28.9375 4.561 31.7865 7.33916 31.7865 10.7509V24.7751C31.7865 28.1895 28.9349 30.9651 25.4329 30.9651H14.2686L21.5464 23.8747C22.4601 22.9846 22.4601 21.5403 21.5464 20.6502C20.6328 19.7601 19.1503 19.7601 18.2367 20.6502L6.96185 31.6346C6.29305 32.2862 6.09293 33.2686 6.45367 34.1203C6.81703 34.972 7.67015 35.5286 8.61542 35.5286H25.4276C31.5126 35.5286 36.4628 30.706 36.4628 24.7777V10.7535C36.4681 4.82522 31.5179 0 25.4302 0Z" fill="url(#paint2_linear_1612_6248)"/><path d="M25.3326 19.2445C26.6255 19.2445 27.6734 18.2235 27.6734 16.964V10.8484C27.6734 9.58891 26.6255 8.56794 25.3326 8.56794H19.0554C17.7625 8.56794 16.7146 9.58891 16.7146 10.8484C16.7146 12.108 17.7625 13.1289 19.0554 13.1289H22.9918V16.964C22.9918 18.2235 24.0398 19.2445 25.3326 19.2445Z" fill="url(#paint3_linear_1612_6248)"/><defs><linearGradient id="paint0_linear_1612_6248" x1="85.7043" y1="9.06727" x2="90.2952" y2="9.06727" gradientUnits="userSpaceOnUse"><stop stop-color="#0068FF"/><stop offset="1" stop-color="#0000E1"/></linearGradient><linearGradient id="paint1_linear_1612_6248" x1="121.164" y1="9.06727" x2="125.755" y2="9.06727" gradientUnits="userSpaceOnUse"><stop stop-color="#FF9852"/><stop offset="0.2774" stop-color="#FF8A3A"/><stop offset="1" stop-color="#FF6700"/></linearGradient><linearGradient id="paint2_linear_1612_6248" x1="22.8398" y1="10.7934" x2="3.74923" y2="30.3888" gradientUnits="userSpaceOnUse"><stop stop-color="#0068FF"/><stop offset="1" stop-color="#0000E1"/></linearGradient><linearGradient id="paint3_linear_1612_6248" x1="27.4646" y1="8.77236" x2="20.4998" y2="15.9213" gradientUnits="userSpaceOnUse"><stop stop-color="#FF9852"/><stop offset="0.2774" stop-color="#FF8A3A"/><stop offset="1" stop-color="#FF6700"/></linearGradient></defs></svg>