<svg width="24" height="24" viewBox="0 0 24 24" fill="none" xmlns="http://www.w3.org/2000/svg"><path d="M12 3C7.03843 3 3 7.03714 3 12C3 16.9629 7.03843 21 12 21C16.9616 21 21 16.9629 21 12C21 7.03714 16.9616 3 12 3ZM12 19.7143C7.74557 19.7143 4.28571 16.2544 4.28571 12C4.28571 7.74557 7.74557 4.28571 12 4.28571C16.2544 4.28571 19.7143 7.74557 19.7143 12C19.7143 16.2544 16.2544 19.7143 12 19.7143Z" fill="#75839D" stroke="#75839D" stroke-width="0.5"/><path d="M12 15C13.6569 15 15 13.6569 15 12C15 10.3431 13.6569 9 12 9C10.3431 9 9 10.3431 9 12C9 13.6569 10.3431 15 12 15Z" fill="#75839D"/></svg>