<svg width="16" height="16" viewBox="0 0 16 16" fill="none" xmlns="http://www.w3.org/2000/svg"><path d="M12.6668 1.33334H3.3335C2.80306 1.33334 2.29436 1.54406 1.91928 1.91913C1.54421 2.2942 1.3335 2.80291 1.3335 3.33334V4.11334C1.3334 4.38864 1.39014 4.66099 1.50016 4.91334V4.95334C1.59435 5.16732 1.72776 5.36178 1.8935 5.52668L6.00016 9.60668V14C5.99994 14.1133 6.02859 14.2248 6.08341 14.3239C6.13823 14.4231 6.21742 14.5066 6.3135 14.5667C6.41959 14.6324 6.54201 14.6671 6.66683 14.6667C6.77119 14.6661 6.87395 14.6409 6.96683 14.5933L9.6335 13.26C9.74344 13.2046 9.83589 13.1198 9.90061 13.0151C9.96533 12.9104 9.99979 12.7898 10.0002 12.6667V9.60668L14.0802 5.52668C14.2459 5.36178 14.3793 5.16732 14.4735 4.95334V4.91334C14.5927 4.66296 14.6585 4.39053 14.6668 4.11334V3.33334C14.6668 2.80291 14.4561 2.2942 14.081 1.91913C13.706 1.54406 13.1973 1.33334 12.6668 1.33334ZM8.86016 8.86001C8.79837 8.9223 8.74949 8.99618 8.71632 9.07741C8.68314 9.15863 8.66632 9.24561 8.66683 9.33334V12.2533L7.3335 12.92V9.33334C7.334 9.24561 7.31719 9.15863 7.28401 9.07741C7.25083 8.99618 7.20195 8.9223 7.14016 8.86001L3.60683 5.33334H12.3935L8.86016 8.86001ZM13.3335 4.00001H2.66683V3.33334C2.66683 3.15653 2.73707 2.98696 2.86209 2.86194C2.98712 2.73691 3.15669 2.66668 3.3335 2.66668H12.6668C12.8436 2.66668 13.0132 2.73691 13.1382 2.86194C13.2633 2.98696 13.3335 3.15653 13.3335 3.33334V4.00001Z" fill="white"/></svg>