<svg width="32" height="32" viewBox="0 0 32 32" fill="none" xmlns="http://www.w3.org/2000/svg"><path d="M24 17.5733V13.3333C23.9981 11.4442 23.3277 9.61661 22.1075 8.17436C20.8873 6.7321 19.1961 5.76818 17.3333 5.45332V3.99999C17.3333 3.64637 17.1928 3.30723 16.9428 3.05718C16.6927 2.80713 16.3536 2.66666 16 2.66666C15.6464 2.66666 15.3072 2.80713 15.0572 3.05718C14.8071 3.30723 14.6666 3.64637 14.6666 3.99999V5.45332C12.8039 5.76818 11.1127 6.7321 9.89249 8.17436C8.67231 9.61661 8.00189 11.4442 7.99998 13.3333V17.5733C7.22191 17.8484 6.54798 18.3574 6.07056 19.0306C5.59315 19.7037 5.33563 20.5081 5.33331 21.3333V24C5.33331 24.3536 5.47379 24.6928 5.72384 24.9428C5.97389 25.1928 6.31302 25.3333 6.66665 25.3333H10.8533C11.1604 26.4632 11.8306 27.4605 12.7608 28.1716C13.6909 28.8827 14.8292 29.268 16 29.268C17.1708 29.268 18.3091 28.8827 19.2392 28.1716C20.1693 27.4605 20.8396 26.4632 21.1466 25.3333H25.3333C25.6869 25.3333 26.0261 25.1928 26.2761 24.9428C26.5262 24.6928 26.6666 24.3536 26.6666 24V21.3333C26.6643 20.5081 26.4068 19.7037 25.9294 19.0306C25.452 18.3574 24.778 17.8484 24 17.5733ZM10.6666 13.3333C10.6666 11.9188 11.2285 10.5623 12.2287 9.56209C13.2289 8.56189 14.5855 7.99999 16 7.99999C17.4145 7.99999 18.771 8.56189 19.7712 9.56209C20.7714 10.5623 21.3333 11.9188 21.3333 13.3333V17.3333H10.6666V13.3333ZM16 26.6667C15.5346 26.6638 15.0781 26.5393 14.6758 26.3054C14.2734 26.0715 13.9393 25.7364 13.7066 25.3333H18.2933C18.0606 25.7364 17.7265 26.0715 17.3242 26.3054C16.9219 26.5393 16.4653 26.6638 16 26.6667ZM24 22.6667H7.99998V21.3333C7.99998 20.9797 8.14046 20.6406 8.3905 20.3905C8.64055 20.1405 8.97969 20 9.33331 20H22.6666C23.0203 20 23.3594 20.1405 23.6095 20.3905C23.8595 20.6406 24 20.9797 24 21.3333V22.6667Z" fill="#424C5D"/></svg>